<?xml version="1.0" encoding="UTF-8" standalone="no"?><svg xmlns="http://www.w3.org/2000/svg" xmlns:xlink="http://www.w3.org/1999/xlink" clip-rule="evenodd" stroke-miterlimit="10" viewBox="0 0 693 42"><desc>SVG generated by Keynote</desc><defs></defs><g transform="matrix(1.00, 0.00, -0.00, -1.00, 0.0, 42.0)"><text xml:space="preserve" font-family="Helvetica,Helvetica" font-size="40.0" fill="#536467" transform="matrix(1.00, 0.00, -0.00, -1.00, -0.7, 10.2)">i</text><text xml:space="preserve" font-family="Helvetica,Helvetica" font-size="40.0" fill="#536467" transform="matrix(1.00, 0.00, -0.00, -1.00, 8.2, 10.2)">m</text><text xml:space="preserve" font-family="Helvetica,Helvetica" font-size="40.0" fill="#536467" transform="matrix(1.00, 0.00, -0.00, -1.00, 41.5, 10.2)">p</text><text xml:space="preserve" font-family="Helvetica,Helvetica" font-size="40.0" fill="#536467" transform="matrix(1.00, 0.00, -0.00, -1.00, 63.8, 10.2)">r</text><text xml:space="preserve" font-family="Helvetica,Helvetica" font-size="40.0" fill="#536467" transform="matrix(1.00, 0.00, -0.00, -1.00, 77.1, 10.2)">o</text><text xml:space="preserve" font-family="Helvetica,Helvetica" font-size="40.0" fill="#536467" transform="matrix(1.00, 0.00, -0.00, -1.00, 99.4, 10.2)">v</text><text xml:space="preserve" font-family="Helvetica,Helvetica" font-size="40.0" fill="#536467" transform="matrix(1.00, 0.00, -0.00, -1.00, 119.4, 10.2)">e</text><text xml:space="preserve" font-family="Helvetica,Helvetica" font-size="40.0" fill="#536467" transform="matrix(1.00, 0.00, -0.00, -1.00, 141.6, 10.2)">d</text><text xml:space="preserve" font-family="Helvetica,Helvetica" font-size="40.0" fill="#536467" transform="matrix(1.00, 0.00, -0.00, -1.00, 163.9, 10.2)"> </text><text xml:space="preserve" font-family="Helvetica,Helvetica" font-size="40.0" fill="#536467" transform="matrix(1.00, 0.00, -0.00, -1.00, 175.0, 10.2)">v</text><text xml:space="preserve" font-family="Helvetica,Helvetica" font-size="40.0" fill="#536467" transform="matrix(1.00, 0.00, -0.00, -1.00, 195.0, 10.2)">8</text><text xml:space="preserve" font-family="Helvetica,Helvetica" font-size="40.0" fill="#536467" transform="matrix(1.00, 0.00, -0.00, -1.00, 217.2, 10.2)"> </text><text xml:space="preserve" font-family="Helvetica,Helvetica" font-size="40.0" fill="#536467" transform="matrix(1.00, 0.00, -0.00, -1.00, 228.3, 10.2)">i</text><text xml:space="preserve" font-family="Helvetica,Helvetica" font-size="40.0" fill="#536467" transform="matrix(1.00, 0.00, -0.00, -1.00, 237.2, 10.2)">n</text><text xml:space="preserve" font-family="Helvetica,Helvetica" font-size="40.0" fill="#536467" transform="matrix(1.00, 0.00, -0.00, -1.00, 259.5, 10.2)">s</text><text xml:space="preserve" font-family="Helvetica,Helvetica" font-size="40.0" fill="#536467" transform="matrix(1.00, 0.00, -0.00, -1.00, 279.5, 10.2)">p</text><text xml:space="preserve" font-family="Helvetica,Helvetica" font-size="40.0" fill="#536467" transform="matrix(1.00, 0.00, -0.00, -1.00, 301.7, 10.2)">e</text><text xml:space="preserve" font-family="Helvetica,Helvetica" font-size="40.0" fill="#536467" transform="matrix(1.00, 0.00, -0.00, -1.00, 324.0, 10.2)">c</text><text xml:space="preserve" font-family="Helvetica,Helvetica" font-size="40.0" fill="#536467" transform="matrix(1.00, 0.00, -0.00, -1.00, 344.0, 10.2)">t</text><text xml:space="preserve" font-family="Helvetica,Helvetica" font-size="40.0" fill="#536467" transform="matrix(1.00, 0.00, -0.00, -1.00, 355.1, 10.2)">a</text><text xml:space="preserve" font-family="Helvetica,Helvetica" font-size="40.0" fill="#536467" transform="matrix(1.00, 0.00, -0.00, -1.00, 377.4, 10.2)">b</text><text xml:space="preserve" font-family="Helvetica,Helvetica" font-size="40.0" fill="#536467" transform="matrix(1.00, 0.00, -0.00, -1.00, 399.6, 10.2)">i</text><text xml:space="preserve" font-family="Helvetica,Helvetica" font-size="40.0" fill="#536467" transform="matrix(1.00, 0.00, -0.00, -1.00, 408.5, 10.2)">l</text><text xml:space="preserve" font-family="Helvetica,Helvetica" font-size="40.0" fill="#536467" transform="matrix(1.00, 0.00, -0.00, -1.00, 417.4, 10.2)">i</text><text xml:space="preserve" font-family="Helvetica,Helvetica" font-size="40.0" fill="#536467" transform="matrix(1.00, 0.00, -0.00, -1.00, 426.3, 10.2)">t</text><text xml:space="preserve" font-family="Helvetica,Helvetica" font-size="40.0" fill="#536467" transform="matrix(1.00, 0.00, -0.00, -1.00, 437.4, 10.2)">y</text><text xml:space="preserve" font-family="Helvetica,Helvetica" font-size="40.0" fill="#536467" transform="matrix(1.00, 0.00, -0.00, -1.00, 457.4, 10.2)"> </text><text xml:space="preserve" font-family="Helvetica,Helvetica" font-size="40.0" fill="#536467" transform="matrix(1.00, 0.00, -0.00, -1.00, 468.5, 10.2)">a</text><text xml:space="preserve" font-family="Helvetica,Helvetica" font-size="40.0" fill="#536467" transform="matrix(1.00, 0.00, -0.00, -1.00, 490.8, 10.2)">n</text><text xml:space="preserve" font-family="Helvetica,Helvetica" font-size="40.0" fill="#536467" transform="matrix(1.00, 0.00, -0.00, -1.00, 513.0, 10.2)">d</text><text xml:space="preserve" font-family="Helvetica,Helvetica" font-size="40.0" fill="#536467" transform="matrix(1.00, 0.00, -0.00, -1.00, 535.3, 10.2)"> </text><text xml:space="preserve" font-family="Helvetica,Helvetica" font-size="40.0" fill="#536467" transform="matrix(1.00, 0.00, -0.00, -1.00, 546.4, 10.2)">f</text><text xml:space="preserve" font-family="Helvetica,Helvetica" font-size="40.0" fill="#536467" transform="matrix(1.00, 0.00, -0.00, -1.00, 557.5, 10.2)">e</text><text xml:space="preserve" font-family="Helvetica,Helvetica" font-size="40.0" fill="#536467" transform="matrix(1.00, 0.00, -0.00, -1.00, 579.7, 10.2)">a</text><text xml:space="preserve" font-family="Helvetica,Helvetica" font-size="40.0" fill="#536467" transform="matrix(1.00, 0.00, -0.00, -1.00, 602.0, 10.2)">t</text><text xml:space="preserve" font-family="Helvetica,Helvetica" font-size="40.0" fill="#536467" transform="matrix(1.00, 0.00, -0.00, -1.00, 613.1, 10.2)">u</text><text xml:space="preserve" font-family="Helvetica,Helvetica" font-size="40.0" fill="#536467" transform="matrix(1.00, 0.00, -0.00, -1.00, 635.3, 10.2)">r</text><text xml:space="preserve" font-family="Helvetica,Helvetica" font-size="40.0" fill="#536467" transform="matrix(1.00, 0.00, -0.00, -1.00, 648.7, 10.2)">e</text><text xml:space="preserve" font-family="Helvetica,Helvetica" font-size="40.0" fill="#536467" transform="matrix(1.00, 0.00, -0.00, -1.00, 670.9, 10.2)">s</text><g><clipPath id="clip0x6000014b3f80"><path d="M -0.7 49.0 L 691.8 49.0 L 691.8 1.0 L -0.7 1.0 Z M -0.7 49.0 "></path></clipPath><g clip-path="url(#clip0x6000014b3f80)"><path d="M 2.1 56.6 L 694.6 56.6 " fill="none" stroke="#000000" stroke-width="1.00" transform="matrix(1.00, 0.00, 0.00, -1.00, -2.8, 51.1)"></path></g></g></g></svg>