<?xml version="1.0" encoding="UTF-8" standalone="no"?><svg xmlns="http://www.w3.org/2000/svg" xmlns:xlink="http://www.w3.org/1999/xlink" clip-rule="evenodd" stroke-miterlimit="10" viewBox="0 0 415 29"><desc>SVG generated by Keynote</desc><defs></defs><g transform="matrix(1.00, 0.00, -0.00, -1.00, 0.0, 29.0)"><text xml:space="preserve" font-family="Helvetica,Helvetica" font-size="34.0" fill="#66CCBA" transform="matrix(1.00, 0.00, -0.00, -1.00, 1.7, 2.2)">W</text><text xml:space="preserve" font-family="Helvetica,Helvetica" font-size="34.0" fill="#66CCBA" transform="matrix(1.00, 0.00, -0.00, -1.00, 33.8, 2.2)">h</text><text xml:space="preserve" font-family="Helvetica,Helvetica" font-size="34.0" fill="#66CCBA" transform="matrix(1.00, 0.00, -0.00, -1.00, 52.7, 2.2)">a</text><text xml:space="preserve" font-family="Helvetica,Helvetica" font-size="34.0" fill="#66CCBA" transform="matrix(1.00, 0.00, -0.00, -1.00, 71.6, 2.2)">t</text><text xml:space="preserve" font-family="Helvetica,Helvetica" font-size="34.0" fill="#66CCBA" transform="matrix(1.00, 0.00, -0.00, -1.00, 81.0, 2.2)"> </text><text xml:space="preserve" font-family="Helvetica,Helvetica" font-size="34.0" fill="#66CCBA" transform="matrix(1.00, 0.00, -0.00, -1.00, 90.5, 2.2)">w</text><text xml:space="preserve" font-family="Helvetica,Helvetica" font-size="34.0" fill="#66CCBA" transform="matrix(1.00, 0.00, -0.00, -1.00, 115.0, 2.2)">i</text><text xml:space="preserve" font-family="Helvetica,Helvetica" font-size="34.0" fill="#66CCBA" transform="matrix(1.00, 0.00, -0.00, -1.00, 122.6, 2.2)">l</text><text xml:space="preserve" font-family="Helvetica,Helvetica" font-size="34.0" fill="#66CCBA" transform="matrix(1.00, 0.00, -0.00, -1.00, 130.1, 2.2)">l</text><text xml:space="preserve" font-family="Helvetica,Helvetica" font-size="34.0" fill="#66CCBA" transform="matrix(1.00, 0.00, -0.00, -1.00, 137.7, 2.2)"> </text><text xml:space="preserve" font-family="Helvetica,Helvetica" font-size="34.0" fill="#66CCBA" transform="matrix(1.00, 0.00, -0.00, -1.00, 147.1, 2.2)">m</text><text xml:space="preserve" font-family="Helvetica,Helvetica" font-size="34.0" fill="#66CCBA" transform="matrix(1.00, 0.00, -0.00, -1.00, 175.5, 2.2)">a</text><text xml:space="preserve" font-family="Helvetica,Helvetica" font-size="34.0" fill="#66CCBA" transform="matrix(1.00, 0.00, -0.00, -1.00, 194.4, 2.2)">k</text><text xml:space="preserve" font-family="Helvetica,Helvetica" font-size="34.0" fill="#66CCBA" transform="matrix(1.00, 0.00, -0.00, -1.00, 211.4, 2.2)">e</text><text xml:space="preserve" font-family="Helvetica,Helvetica" font-size="34.0" fill="#66CCBA" transform="matrix(1.00, 0.00, -0.00, -1.00, 230.3, 2.2)"> </text><text xml:space="preserve" font-family="Helvetica,Helvetica" font-size="34.0" fill="#66CCBA" transform="matrix(1.00, 0.00, -0.00, -1.00, 239.7, 2.2)">t</text><text xml:space="preserve" font-family="Helvetica,Helvetica" font-size="34.0" fill="#66CCBA" transform="matrix(1.00, 0.00, -0.00, -1.00, 249.2, 2.2)">h</text><text xml:space="preserve" font-family="Helvetica,Helvetica" font-size="34.0" fill="#66CCBA" transform="matrix(1.00, 0.00, -0.00, -1.00, 268.1, 2.2)">i</text><text xml:space="preserve" font-family="Helvetica,Helvetica" font-size="34.0" fill="#66CCBA" transform="matrix(1.00, 0.00, -0.00, -1.00, 275.7, 2.2)">s</text><text xml:space="preserve" font-family="Helvetica,Helvetica" font-size="34.0" fill="#66CCBA" transform="matrix(1.00, 0.00, -0.00, -1.00, 292.7, 2.2)"> </text><text xml:space="preserve" font-family="Helvetica,Helvetica" font-size="34.0" fill="#66CCBA" transform="matrix(1.00, 0.00, -0.00, -1.00, 302.1, 2.2)">e</text><text xml:space="preserve" font-family="Helvetica,Helvetica" font-size="34.0" fill="#66CCBA" transform="matrix(1.00, 0.00, -0.00, -1.00, 321.0, 2.2)">a</text><text xml:space="preserve" font-family="Helvetica,Helvetica" font-size="34.0" fill="#66CCBA" transform="matrix(1.00, 0.00, -0.00, -1.00, 339.9, 2.2)">s</text><text xml:space="preserve" font-family="Helvetica,Helvetica" font-size="34.0" fill="#66CCBA" transform="matrix(1.00, 0.00, -0.00, -1.00, 356.9, 2.2)">i</text><text xml:space="preserve" font-family="Helvetica,Helvetica" font-size="34.0" fill="#66CCBA" transform="matrix(1.00, 0.00, -0.00, -1.00, 364.5, 2.2)">e</text><text xml:space="preserve" font-family="Helvetica,Helvetica" font-size="34.0" fill="#66CCBA" transform="matrix(1.00, 0.00, -0.00, -1.00, 383.4, 2.2)">r</text><text xml:space="preserve" font-family="Helvetica,Helvetica" font-size="34.0" fill="#66CCBA" transform="matrix(1.00, 0.00, -0.00, -1.00, 394.7, 2.2)">?</text></g></svg>