<?xml version="1.0" encoding="UTF-8" standalone="no"?><svg xmlns="http://www.w3.org/2000/svg" xmlns:xlink="http://www.w3.org/1999/xlink" clip-rule="evenodd" stroke-miterlimit="10" viewBox="0 0 894 42"><desc>SVG generated by Keynote</desc><defs></defs><g transform="matrix(1.00, 0.00, -0.00, -1.00, 0.0, 42.0)"><text xml:space="preserve" font-family="Helvetica,Helvetica" font-size="40.0" fill="#536467" transform="matrix(1.00, 0.00, -0.00, -1.00, 1.3, 10.2)">t</text><text xml:space="preserve" font-family="Helvetica,Helvetica" font-size="40.0" fill="#536467" transform="matrix(1.00, 0.00, -0.00, -1.00, 12.4, 10.2)">r</text><text xml:space="preserve" font-family="Helvetica,Helvetica" font-size="40.0" fill="#536467" transform="matrix(1.00, 0.00, -0.00, -1.00, 25.7, 10.2)">a</text><text xml:space="preserve" font-family="Helvetica,Helvetica" font-size="40.0" fill="#536467" transform="matrix(1.00, 0.00, -0.00, -1.00, 48.0, 10.2)">c</text><text xml:space="preserve" font-family="Helvetica,Helvetica" font-size="40.0" fill="#536467" transform="matrix(1.00, 0.00, -0.00, -1.00, 68.0, 10.2)">i</text><text xml:space="preserve" font-family="Helvetica,Helvetica" font-size="40.0" fill="#536467" transform="matrix(1.00, 0.00, -0.00, -1.00, 76.9, 10.2)">n</text><text xml:space="preserve" font-family="Helvetica,Helvetica" font-size="40.0" fill="#536467" transform="matrix(1.00, 0.00, -0.00, -1.00, 99.2, 10.2)">g</text><text xml:space="preserve" font-family="Helvetica,Helvetica" font-size="40.0" fill="#536467" transform="matrix(1.00, 0.00, -0.00, -1.00, 121.4, 10.2)"> </text><text xml:space="preserve" font-family="Helvetica,Helvetica" font-size="40.0" fill="#536467" transform="matrix(1.00, 0.00, -0.00, -1.00, 132.5, 10.2)">h</text><text xml:space="preserve" font-family="Helvetica,Helvetica" font-size="40.0" fill="#536467" transform="matrix(1.00, 0.00, -0.00, -1.00, 154.8, 10.2)">o</text><text xml:space="preserve" font-family="Helvetica,Helvetica" font-size="40.0" fill="#536467" transform="matrix(1.00, 0.00, -0.00, -1.00, 177.0, 10.2)">o</text><text xml:space="preserve" font-family="Helvetica,Helvetica" font-size="40.0" fill="#536467" transform="matrix(1.00, 0.00, -0.00, -1.00, 199.3, 10.2)">k</text><text xml:space="preserve" font-family="Helvetica,Helvetica" font-size="40.0" fill="#536467" transform="matrix(1.00, 0.00, -0.00, -1.00, 219.3, 10.2)">s</text><text xml:space="preserve" font-family="Helvetica,Helvetica" font-size="40.0" fill="#536467" transform="matrix(1.00, 0.00, -0.00, -1.00, 239.3, 10.2)"> </text><text xml:space="preserve" font-family="Helvetica,Helvetica" font-size="40.0" fill="#536467" transform="matrix(1.00, 0.00, -0.00, -1.00, 250.4, 10.2)">i</text><text xml:space="preserve" font-family="Helvetica,Helvetica" font-size="40.0" fill="#536467" transform="matrix(1.00, 0.00, -0.00, -1.00, 259.3, 10.2)">n</text><text xml:space="preserve" font-family="Helvetica,Helvetica" font-size="40.0" fill="#536467" transform="matrix(1.00, 0.00, -0.00, -1.00, 281.5, 10.2)"> </text><text xml:space="preserve" font-family="Helvetica,Helvetica" font-size="40.0" fill="#536467" transform="matrix(1.00, 0.00, -0.00, -1.00, 292.6, 10.2)">c</text><text xml:space="preserve" font-family="Helvetica,Helvetica" font-size="40.0" fill="#536467" transform="matrix(1.00, 0.00, -0.00, -1.00, 312.6, 10.2)">o</text><text xml:space="preserve" font-family="Helvetica,Helvetica" font-size="40.0" fill="#536467" transform="matrix(1.00, 0.00, -0.00, -1.00, 334.9, 10.2)">r</text><text xml:space="preserve" font-family="Helvetica,Helvetica" font-size="40.0" fill="#536467" transform="matrix(1.00, 0.00, -0.00, -1.00, 348.2, 10.2)">e</text><text xml:space="preserve" font-family="Helvetica,Helvetica" font-size="40.0" fill="#536467" transform="matrix(1.00, 0.00, -0.00, -1.00, 370.5, 10.2)"> </text><text xml:space="preserve" font-family="Helvetica,Helvetica" font-size="40.0" fill="#536467" transform="matrix(1.00, 0.00, -0.00, -1.00, 381.6, 10.2)">(</text><text xml:space="preserve" font-family="Helvetica,Helvetica" font-size="40.0" fill="#536467" transform="matrix(1.00, 0.00, -0.00, -1.00, 394.9, 10.2)">a</text><text xml:space="preserve" font-family="Helvetica,Helvetica" font-size="40.0" fill="#536467" transform="matrix(1.00, 0.00, -0.00, -1.00, 417.1, 10.2)">s</text><text xml:space="preserve" font-family="Helvetica,Helvetica" font-size="40.0" fill="#536467" transform="matrix(1.00, 0.00, -0.00, -1.00, 437.1, 10.2)">y</text><text xml:space="preserve" font-family="Helvetica,Helvetica" font-size="40.0" fill="#536467" transform="matrix(1.00, 0.00, -0.00, -1.00, 457.1, 10.2)">n</text><text xml:space="preserve" font-family="Helvetica,Helvetica" font-size="40.0" fill="#536467" transform="matrix(1.00, 0.00, -0.00, -1.00, 479.4, 10.2)">c</text><text xml:space="preserve" font-family="Helvetica,Helvetica" font-size="40.0" fill="#536467" transform="matrix(1.00, 0.00, -0.00, -1.00, 499.4, 10.2)"> </text><text xml:space="preserve" font-family="Helvetica,Helvetica" font-size="40.0" fill="#536467" transform="matrix(1.00, 0.00, -0.00, -1.00, 510.5, 10.2)">w</text><text xml:space="preserve" font-family="Helvetica,Helvetica" font-size="40.0" fill="#536467" transform="matrix(1.00, 0.00, -0.00, -1.00, 539.4, 10.2)">r</text><text xml:space="preserve" font-family="Helvetica,Helvetica" font-size="40.0" fill="#536467" transform="matrix(1.00, 0.00, -0.00, -1.00, 552.7, 10.2)">a</text><text xml:space="preserve" font-family="Helvetica,Helvetica" font-size="40.0" fill="#536467" transform="matrix(1.00, 0.00, -0.00, -1.00, 575.0, 10.2)">p</text><text xml:space="preserve" font-family="Helvetica,Helvetica" font-size="40.0" fill="#536467" transform="matrix(1.00, 0.00, -0.00, -1.00, 597.2, 10.2)">,</text><text xml:space="preserve" font-family="Helvetica,Helvetica" font-size="40.0" fill="#536467" transform="matrix(1.00, 0.00, -0.00, -1.00, 608.3, 10.2)"> </text><text xml:space="preserve" font-family="Helvetica,Helvetica" font-size="40.0" fill="#536467" transform="matrix(1.00, 0.00, -0.00, -1.00, 619.4, 10.2)">L</text><text xml:space="preserve" font-family="Helvetica,Helvetica" font-size="40.0" fill="#536467" transform="matrix(1.00, 0.00, -0.00, -1.00, 638.7, 10.2)">T</text><text xml:space="preserve" font-family="Helvetica,Helvetica" font-size="40.0" fill="#536467" transform="matrix(1.00, 0.00, -0.00, -1.00, 663.2, 10.2)">T</text><text xml:space="preserve" font-family="Helvetica,Helvetica" font-size="40.0" fill="#536467" transform="matrix(1.00, 0.00, -0.00, -1.00, 687.6, 10.2)">N</text><text xml:space="preserve" font-family="Helvetica,Helvetica" font-size="40.0" fill="#536467" transform="matrix(1.00, 0.00, -0.00, -1.00, 716.5, 10.2)">G</text><text xml:space="preserve" font-family="Helvetica,Helvetica" font-size="40.0" fill="#536467" transform="matrix(1.00, 0.00, -0.00, -1.00, 747.6, 10.2)"> </text><text xml:space="preserve" font-family="Helvetica,Helvetica" font-size="40.0" fill="#536467" transform="matrix(1.00, 0.00, -0.00, -1.00, 758.7, 10.2)">p</text><text xml:space="preserve" font-family="Helvetica,Helvetica" font-size="40.0" fill="#536467" transform="matrix(1.00, 0.00, -0.00, -1.00, 780.9, 10.2)">r</text><text xml:space="preserve" font-family="Helvetica,Helvetica" font-size="40.0" fill="#536467" transform="matrix(1.00, 0.00, -0.00, -1.00, 794.3, 10.2)">o</text><text xml:space="preserve" font-family="Helvetica,Helvetica" font-size="40.0" fill="#536467" transform="matrix(1.00, 0.00, -0.00, -1.00, 816.5, 10.2)">b</text><text xml:space="preserve" font-family="Helvetica,Helvetica" font-size="40.0" fill="#536467" transform="matrix(1.00, 0.00, -0.00, -1.00, 838.8, 10.2)">e</text><text xml:space="preserve" font-family="Helvetica,Helvetica" font-size="40.0" fill="#536467" transform="matrix(1.00, 0.00, -0.00, -1.00, 861.0, 10.2)">s</text><text xml:space="preserve" font-family="Helvetica,Helvetica" font-size="40.0" fill="#536467" transform="matrix(1.00, 0.00, -0.00, -1.00, 881.0, 10.2)">)</text><g><clipPath id="clip0x6000014b8240"><path d="M 1.3 49.0 L 895.3 49.0 L 895.3 1.0 L 1.3 1.0 Z M 1.3 49.0 "></path></clipPath><g clip-path="url(#clip0x6000014b8240)"><path d="M 2.1 56.6 L 896.1 56.6 " fill="none" stroke="#000000" stroke-width="1.00" transform="matrix(1.00, 0.00, 0.00, -1.00, -0.8, 51.1)"></path></g></g></g></svg>