<?xml version="1.0" encoding="UTF-8" standalone="no"?><svg xmlns="http://www.w3.org/2000/svg" xmlns:xlink="http://www.w3.org/1999/xlink" clip-rule="evenodd" stroke-miterlimit="10" viewBox="0 0 78 19"><desc>SVG generated by Keynote</desc><defs></defs><g transform="matrix(1.00, 0.00, -0.00, -1.00, 0.0, 19.0)"><text xml:space="preserve" font-family="Helvetica,Helvetica" font-size="20.0" fill="#536467" transform="matrix(1.00, 0.00, -0.00, -1.00, 0.7, 5.8)">r</text><text xml:space="preserve" font-family="Helvetica,Helvetica" font-size="20.0" fill="#536467" transform="matrix(1.00, 0.00, -0.00, -1.00, 7.4, 5.8)">w</text><text xml:space="preserve" font-family="Helvetica,Helvetica" font-size="20.0" fill="#536467" transform="matrix(1.00, 0.00, -0.00, -1.00, 21.8, 5.8)">s</text><text xml:space="preserve" font-family="Helvetica,Helvetica" font-size="20.0" fill="#536467" transform="matrix(1.00, 0.00, -0.00, -1.00, 31.8, 5.8)">n</text><text xml:space="preserve" font-family="Helvetica,Helvetica" font-size="20.0" fill="#536467" transform="matrix(1.00, 0.00, -0.00, -1.00, 43.0, 5.8)">o</text><text xml:space="preserve" font-family="Helvetica,Helvetica" font-size="20.0" fill="#536467" transform="matrix(1.00, 0.00, -0.00, -1.00, 54.1, 5.8)">o</text><text xml:space="preserve" font-family="Helvetica,Helvetica" font-size="20.0" fill="#536467" transform="matrix(1.00, 0.00, -0.00, -1.00, 65.2, 5.8)">p</text><g><clipPath id="clip0x6000010b0c80"><path d="M 0.7 25.2 L 77.3 25.2 L 77.3 1.2 L 0.7 1.2 Z M 0.7 25.2 "></path></clipPath><g clip-path="url(#clip0x6000010b0c80)"><path d="M 2.1 32.6 L 78.7 32.6 " fill="none" stroke="#000000" stroke-width="1.00" transform="matrix(1.00, 0.00, 0.00, -1.00, -1.4, 27.4)"></path></g></g></g></svg>