<?xml version="1.0" encoding="UTF-8" standalone="no"?><svg xmlns="http://www.w3.org/2000/svg" xmlns:xlink="http://www.w3.org/1999/xlink" clip-rule="evenodd" stroke-miterlimit="10" viewBox="0 0 86 58"><desc>SVG generated by Keynote</desc><defs></defs><g transform="matrix(1.00, 0.00, -0.00, -1.00, 0.0, 58.0)"><text xml:space="preserve" font-family="Helvetica-Oblique,Helvetica" font-style="italic" font-size="34.0" fill="#536467" transform="matrix(1.00, 0.00, -0.00, -1.00, 0.0, 23.9)">L</text><text xml:space="preserve" font-family="Helvetica-Oblique,Helvetica" font-style="italic" font-size="34.0" fill="#536467" transform="matrix(1.00, 0.00, -0.00, -1.00, 18.9, 23.9)">i</text><text xml:space="preserve" font-family="Helvetica-Oblique,Helvetica" font-style="italic" font-size="34.0" fill="#536467" transform="matrix(1.00, 0.00, -0.00, -1.00, 26.5, 23.9)">n</text><text xml:space="preserve" font-family="Helvetica-Oblique,Helvetica" font-style="italic" font-size="34.0" fill="#536467" transform="matrix(1.00, 0.00, -0.00, -1.00, 45.4, 23.9)">u</text><text xml:space="preserve" font-family="Helvetica-Oblique,Helvetica" font-style="italic" font-size="34.0" fill="#536467" transform="matrix(1.00, 0.00, -0.00, -1.00, 64.3, 23.9)">x</text><g><clipPath id="clip0x608000cbcb00"><path d="M -1.0 19.5 L 81.3 19.5 L 81.3 23.1 L -1.0 23.1 Z M -1.0 19.5 "></path></clipPath><g clip-path="url(#clip0x608000cbcb00)"><path d="M 2.1 37.9 L 83.4 37.9 " fill="none" stroke="#536467" stroke-width="1.68" transform="matrix(1.00, 0.00, 0.00, -1.00, -2.1, 59.2)"></path></g></g><g><clipPath id="clip0x608000cbcd40"><path d="M 0.0 57.0 L 82.3 57.0 L 82.3 16.0 L 0.0 16.0 Z M 0.0 57.0 "></path></clipPath><g clip-path="url(#clip0x608000cbcd40)"><path d="M 2.1 49.6 L 84.4 49.6 " fill="none" stroke="#000000" stroke-width="1.00" transform="matrix(1.00, 0.00, 0.00, -1.00, -2.1, 59.2)"></path></g></g></g></svg>