<?xml version="1.0" encoding="UTF-8" standalone="no"?><svg xmlns="http://www.w3.org/2000/svg" xmlns:xlink="http://www.w3.org/1999/xlink" clip-rule="evenodd" stroke-miterlimit="10" viewBox="0 0 100 19"><desc>SVG generated by Keynote</desc><defs></defs><g transform="matrix(1.00, 0.00, -0.00, -1.00, 0.0, 19.0)"><text xml:space="preserve" font-family="Helvetica,Helvetica" font-size="20.0" fill="#536467" transform="matrix(1.00, 0.00, -0.00, -1.00, 1.9, 5.8)">e</text><text xml:space="preserve" font-family="Helvetica,Helvetica" font-size="20.0" fill="#536467" transform="matrix(1.00, 0.00, -0.00, -1.00, 13.0, 5.8)">x</text><text xml:space="preserve" font-family="Helvetica,Helvetica" font-size="20.0" fill="#536467" transform="matrix(1.00, 0.00, -0.00, -1.00, 23.0, 5.8)">e</text><text xml:space="preserve" font-family="Helvetica,Helvetica" font-size="20.0" fill="#536467" transform="matrix(1.00, 0.00, -0.00, -1.00, 34.2, 5.8)">c</text><text xml:space="preserve" font-family="Helvetica,Helvetica" font-size="20.0" fill="#536467" transform="matrix(1.00, 0.00, -0.00, -1.00, 44.2, 5.8)">s</text><text xml:space="preserve" font-family="Helvetica,Helvetica" font-size="20.0" fill="#536467" transform="matrix(1.00, 0.00, -0.00, -1.00, 54.2, 5.8)">n</text><text xml:space="preserve" font-family="Helvetica,Helvetica" font-size="20.0" fill="#536467" transform="matrix(1.00, 0.00, -0.00, -1.00, 65.3, 5.8)">o</text><text xml:space="preserve" font-family="Helvetica,Helvetica" font-size="20.0" fill="#536467" transform="matrix(1.00, 0.00, -0.00, -1.00, 76.4, 5.8)">o</text><text xml:space="preserve" font-family="Helvetica,Helvetica" font-size="20.0" fill="#536467" transform="matrix(1.00, 0.00, -0.00, -1.00, 87.5, 5.8)">p</text><g><clipPath id="clip0x6000010b4ca0"><path d="M 1.9 25.2 L 99.6 25.2 L 99.6 1.2 L 1.9 1.2 Z M 1.9 25.2 "></path></clipPath><g clip-path="url(#clip0x6000010b4ca0)"><path d="M 2.1 32.6 L 99.9 32.6 " fill="none" stroke="#000000" stroke-width="1.00" transform="matrix(1.00, 0.00, 0.00, -1.00, -0.2, 27.3)"></path></g></g></g></svg>