<?xml version="1.0" encoding="UTF-8" standalone="no"?><svg xmlns="http://www.w3.org/2000/svg" xmlns:xlink="http://www.w3.org/1999/xlink" clip-rule="evenodd" stroke-miterlimit="10" viewBox="0 0 100 19"><desc>SVG generated by Keynote</desc><defs></defs><g transform="matrix(1.00, 0.00, -0.00, -1.00, 0.0, 19.0)"><text xml:space="preserve" font-family="Helvetica,Helvetica" font-size="20.0" fill="#536467" transform="matrix(1.00, 0.00, -0.00, -1.00, 2.0, 6.2)">e</text><text xml:space="preserve" font-family="Helvetica,Helvetica" font-size="20.0" fill="#536467" transform="matrix(1.00, 0.00, -0.00, -1.00, 13.2, 6.2)">x</text><text xml:space="preserve" font-family="Helvetica,Helvetica" font-size="20.0" fill="#536467" transform="matrix(1.00, 0.00, -0.00, -1.00, 23.2, 6.2)">e</text><text xml:space="preserve" font-family="Helvetica,Helvetica" font-size="20.0" fill="#536467" transform="matrix(1.00, 0.00, -0.00, -1.00, 34.3, 6.2)">c</text><text xml:space="preserve" font-family="Helvetica,Helvetica" font-size="20.0" fill="#536467" transform="matrix(1.00, 0.00, -0.00, -1.00, 44.3, 6.2)">s</text><text xml:space="preserve" font-family="Helvetica,Helvetica" font-size="20.0" fill="#536467" transform="matrix(1.00, 0.00, -0.00, -1.00, 54.3, 6.2)">n</text><text xml:space="preserve" font-family="Helvetica,Helvetica" font-size="20.0" fill="#536467" transform="matrix(1.00, 0.00, -0.00, -1.00, 65.4, 6.2)">o</text><text xml:space="preserve" font-family="Helvetica,Helvetica" font-size="20.0" fill="#536467" transform="matrix(1.00, 0.00, -0.00, -1.00, 76.5, 6.2)">o</text><text xml:space="preserve" font-family="Helvetica,Helvetica" font-size="20.0" fill="#536467" transform="matrix(1.00, 0.00, -0.00, -1.00, 87.7, 6.2)">p</text><g><clipPath id="clip0x6000010af960"><path d="M 2.0 25.6 L 99.8 25.6 L 99.8 1.6 L 2.0 1.6 Z M 2.0 25.6 "></path></clipPath><g clip-path="url(#clip0x6000010af960)"><path d="M 2.1 32.6 L 99.9 32.6 " fill="none" stroke="#000000" stroke-width="1.00" transform="matrix(1.00, 0.00, 0.00, -1.00, -0.1, 27.7)"></path></g></g></g></svg>