<?xml version="1.0" encoding="UTF-8" standalone="no"?><svg xmlns="http://www.w3.org/2000/svg" xmlns:xlink="http://www.w3.org/1999/xlink" clip-rule="evenodd" stroke-miterlimit="10" viewBox="0 0 73 22"><desc>SVG generated by Keynote</desc><defs></defs><g transform="matrix(1.00, 0.00, -0.00, -1.00, 0.0, 22.0)"><text xml:space="preserve" font-family="Helvetica,Helvetica" font-size="20.0" fill="#536467" transform="matrix(1.00, 0.00, -0.00, -1.00, 1.9, 5.8)">v</text><text xml:space="preserve" font-family="Helvetica,Helvetica" font-size="20.0" fill="#536467" transform="matrix(1.00, 0.00, -0.00, -1.00, 11.9, 5.8)">a</text><text xml:space="preserve" font-family="Helvetica,Helvetica" font-size="20.0" fill="#536467" transform="matrix(1.00, 0.00, -0.00, -1.00, 23.1, 5.8)">l</text><text xml:space="preserve" font-family="Helvetica,Helvetica" font-size="20.0" fill="#536467" transform="matrix(1.00, 0.00, -0.00, -1.00, 27.5, 5.8)">g</text><text xml:space="preserve" font-family="Helvetica,Helvetica" font-size="20.0" fill="#536467" transform="matrix(1.00, 0.00, -0.00, -1.00, 38.6, 5.8)">r</text><text xml:space="preserve" font-family="Helvetica,Helvetica" font-size="20.0" fill="#536467" transform="matrix(1.00, 0.00, -0.00, -1.00, 45.3, 5.8)">i</text><text xml:space="preserve" font-family="Helvetica,Helvetica" font-size="20.0" fill="#536467" transform="matrix(1.00, 0.00, -0.00, -1.00, 49.7, 5.8)">n</text><text xml:space="preserve" font-family="Helvetica,Helvetica" font-size="20.0" fill="#536467" transform="matrix(1.00, 0.00, -0.00, -1.00, 60.9, 5.8)">d</text><g><clipPath id="clip0x6000010b3aa0"><path d="M 1.9 25.2 L 73.0 25.2 L 73.0 1.2 L 1.9 1.2 Z M 1.9 25.2 "></path></clipPath><g clip-path="url(#clip0x6000010b3aa0)"><path d="M 2.1 32.6 L 73.2 32.6 " fill="none" stroke="#000000" stroke-width="1.00" transform="matrix(1.00, 0.00, 0.00, -1.00, -0.2, 27.3)"></path></g></g></g></svg>