<?xml version="1.0" encoding="UTF-8" standalone="no"?><svg xmlns="http://www.w3.org/2000/svg" xmlns:xlink="http://www.w3.org/1999/xlink" clip-rule="evenodd" stroke-miterlimit="10" viewBox="0 0 58 17"><desc>SVG generated by Keynote</desc><defs></defs><g transform="matrix(1.00, 0.00, -0.00, -1.00, 0.0, 17.0)"><text xml:space="preserve" font-family="Helvetica,Helvetica" font-size="20.0" fill="#536467" transform="matrix(1.00, 0.00, -0.00, -1.00, 1.4, 1.8)">s</text><text xml:space="preserve" font-family="Helvetica,Helvetica" font-size="20.0" fill="#536467" transform="matrix(1.00, 0.00, -0.00, -1.00, 11.4, 1.8)">t</text><text xml:space="preserve" font-family="Helvetica,Helvetica" font-size="20.0" fill="#536467" transform="matrix(1.00, 0.00, -0.00, -1.00, 17.0, 1.8)">r</text><text xml:space="preserve" font-family="Helvetica,Helvetica" font-size="20.0" fill="#536467" transform="matrix(1.00, 0.00, -0.00, -1.00, 23.6, 1.8)">a</text><text xml:space="preserve" font-family="Helvetica,Helvetica" font-size="20.0" fill="#536467" transform="matrix(1.00, 0.00, -0.00, -1.00, 34.8, 1.8)">c</text><text xml:space="preserve" font-family="Helvetica,Helvetica" font-size="20.0" fill="#536467" transform="matrix(1.00, 0.00, -0.00, -1.00, 44.8, 1.8)">e</text><g><clipPath id="clip0x6000010b20c0"><path d="M 1.4 21.2 L 56.9 21.2 L 56.9 -2.8 L 1.4 -2.8 Z M 1.4 21.2 "></path></clipPath><g clip-path="url(#clip0x6000010b20c0)"><path d="M 2.1 32.6 L 57.6 32.6 " fill="none" stroke="#000000" stroke-width="1.00" transform="matrix(1.00, 0.00, 0.00, -1.00, -0.7, 23.3)"></path></g></g></g></svg>