<?xml version="1.0" encoding="UTF-8" standalone="no"?><svg xmlns="http://www.w3.org/2000/svg" xmlns:xlink="http://www.w3.org/1999/xlink" clip-rule="evenodd" stroke-miterlimit="10" viewBox="0 0 198 36"><desc>SVG generated by Keynote</desc><defs></defs><g transform="matrix(1.00, 0.00, -0.00, -1.00, 0.0, 36.0)"><text xml:space="preserve" font-family="Helvetica,Helvetica" font-size="34.0" fill="#66CCBA" transform="matrix(1.00, 0.00, -0.00, -1.00, -0.3, 9.2)">E</text><text xml:space="preserve" font-family="Helvetica,Helvetica" font-size="34.0" fill="#66CCBA" transform="matrix(1.00, 0.00, -0.00, -1.00, 22.3, 9.2)">a</text><text xml:space="preserve" font-family="Helvetica,Helvetica" font-size="34.0" fill="#66CCBA" transform="matrix(1.00, 0.00, -0.00, -1.00, 41.3, 9.2)">s</text><text xml:space="preserve" font-family="Helvetica,Helvetica" font-size="34.0" fill="#66CCBA" transform="matrix(1.00, 0.00, -0.00, -1.00, 58.3, 9.2)">y</text><text xml:space="preserve" font-family="Helvetica,Helvetica" font-size="34.0" fill="#66CCBA" transform="matrix(1.00, 0.00, -0.00, -1.00, 75.3, 9.2)"> </text><text xml:space="preserve" font-family="Helvetica,Helvetica" font-size="34.0" fill="#66CCBA" transform="matrix(1.00, 0.00, -0.00, -1.00, 84.7, 9.2)">t</text><text xml:space="preserve" font-family="Helvetica,Helvetica" font-size="34.0" fill="#66CCBA" transform="matrix(1.00, 0.00, -0.00, -1.00, 94.1, 9.2)">o</text><text xml:space="preserve" font-family="Helvetica,Helvetica" font-size="34.0" fill="#66CCBA" transform="matrix(1.00, 0.00, -0.00, -1.00, 113.1, 9.2)"> </text><text xml:space="preserve" font-family="Helvetica,Helvetica" font-size="34.0" fill="#66CCBA" transform="matrix(1.00, 0.00, -0.00, -1.00, 122.5, 9.2)">u</text><text xml:space="preserve" font-family="Helvetica,Helvetica" font-size="34.0" fill="#66CCBA" transform="matrix(1.00, 0.00, -0.00, -1.00, 141.4, 9.2)">s</text><text xml:space="preserve" font-family="Helvetica,Helvetica" font-size="34.0" fill="#66CCBA" transform="matrix(1.00, 0.00, -0.00, -1.00, 158.4, 9.2)">e</text><text xml:space="preserve" font-family="Helvetica,Helvetica" font-size="34.0" fill="#66CCBA" transform="matrix(1.00, 0.00, -0.00, -1.00, 177.3, 9.2)">?</text></g></svg>