<?xml version="1.0" encoding="UTF-8" standalone="no"?><svg xmlns="http://www.w3.org/2000/svg" xmlns:xlink="http://www.w3.org/1999/xlink" clip-rule="evenodd" stroke-miterlimit="10" viewBox="0 0 137 17"><desc>SVG generated by Keynote</desc><defs></defs><g transform="matrix(1.00, 0.00, -0.00, -1.00, 0.0, 17.0)"><g><clipPath id="clip0x600000eb4100"><path d="M 1.5 15.3 L 136.6 15.3 L 136.6 0.3 L 1.5 0.3 Z M 1.5 15.3 "></path></clipPath><g clip-path="url(#clip0x600000eb4100)"><g><clipPath id="clip0x600000eb4280"><path d="M 1.5 0.3 L 12.5 0.3 L 12.5 15.3 L 1.5 15.3 Z M 1.5 0.3 "></path></clipPath><g clip-path="url(#clip0x600000eb4280)"><text xml:space="preserve" font-family="Helvetica,Helvetica" font-size="11.0" fill="#88A19D" transform="matrix(1.00, 0.00, -0.00, -1.00, 2.0, 0.8)">©</text></g></g></g></g><g><clipPath id="clip0x600000eb4520"><path d="M 1.5 15.3 L 136.6 15.3 L 136.6 0.3 L 1.5 0.3 Z M 1.5 15.3 "></path></clipPath><g clip-path="url(#clip0x600000eb4520)"><g><clipPath id="clip0x600000eb46a0"><path d="M 13.5 0.3 L 35.1 0.3 L 35.1 15.3 L 13.5 15.3 Z M 13.5 0.3 "></path></clipPath><g clip-path="url(#clip0x600000eb46a0)"><text xml:space="preserve" font-family="Helvetica,Helvetica" font-size="11.0" fill="#88A19D" transform="matrix(1.00, 0.00, -0.00, -1.00, 12.1, 0.8)">2</text><text xml:space="preserve" font-family="Helvetica,Helvetica" font-size="11.0" fill="#88A19D" transform="matrix(1.00, 0.00, -0.00, -1.00, 18.2, 0.8)">0</text><text xml:space="preserve" font-family="Helvetica,Helvetica" font-size="11.0" fill="#88A19D" transform="matrix(1.00, 0.00, -0.00, -1.00, 24.3, 0.8)">1</text><text xml:space="preserve" font-family="Helvetica,Helvetica" font-size="11.0" fill="#88A19D" transform="matrix(1.00, 0.00, -0.00, -1.00, 30.4, 0.8)">5</text></g></g></g></g><g><clipPath id="clip0x600000eb4a00"><path d="M 1.5 15.3 L 136.6 15.3 L 136.6 0.3 L 1.5 0.3 Z M 1.5 15.3 "></path></clipPath><g clip-path="url(#clip0x600000eb4a00)"><g><clipPath id="clip0x600000eb4b80"><path d="M 35.1 0.3 L 136.6 0.3 L 136.6 15.3 L 35.1 15.3 Z M 35.1 0.3 "></path></clipPath><g clip-path="url(#clip0x600000eb4b80)"><text xml:space="preserve" font-family="Helvetica,Helvetica" font-size="11.0" fill="#88A19D" transform="matrix(1.00, 0.00, -0.00, -1.00, 55.3, 0.8)">N</text><text xml:space="preserve" font-family="Helvetica,Helvetica" font-size="11.0" fill="#88A19D" transform="matrix(1.00, 0.00, -0.00, -1.00, 63.2, 0.8)">o</text><text xml:space="preserve" font-family="Helvetica,Helvetica" font-size="11.0" fill="#88A19D" transform="matrix(1.00, 0.00, -0.00, -1.00, 69.4, 0.8)">d</text><text xml:space="preserve" font-family="Helvetica,Helvetica" font-size="11.0" fill="#88A19D" transform="matrix(1.00, 0.00, -0.00, -1.00, 75.5, 0.8)">e</text><text xml:space="preserve" font-family="Helvetica,Helvetica" font-size="11.0" fill="#88A19D" transform="matrix(1.00, 0.00, -0.00, -1.00, 81.6, 0.8)">S</text><text xml:space="preserve" font-family="Helvetica,Helvetica" font-size="11.0" fill="#88A19D" transform="matrix(1.00, 0.00, -0.00, -1.00, 88.9, 0.8)">o</text><text xml:space="preserve" font-family="Helvetica,Helvetica" font-size="11.0" fill="#88A19D" transform="matrix(1.00, 0.00, -0.00, -1.00, 95.1, 0.8)">u</text><text xml:space="preserve" font-family="Helvetica,Helvetica" font-size="11.0" fill="#88A19D" transform="matrix(1.00, 0.00, -0.00, -1.00, 101.2, 0.8)">r</text><text xml:space="preserve" font-family="Helvetica,Helvetica" font-size="11.0" fill="#88A19D" transform="matrix(1.00, 0.00, -0.00, -1.00, 104.8, 0.8)">c</text><text xml:space="preserve" font-family="Helvetica,Helvetica" font-size="11.0" fill="#88A19D" transform="matrix(1.00, 0.00, -0.00, -1.00, 110.3, 0.8)">e</text><text xml:space="preserve" font-family="Helvetica,Helvetica" font-size="11.0" fill="#88A19D" transform="matrix(1.00, 0.00, -0.00, -1.00, 116.5, 0.8)"> </text></g></g></g></g></g></svg>