<?xml version="1.0" encoding="UTF-8" standalone="no"?><svg xmlns="http://www.w3.org/2000/svg" xmlns:xlink="http://www.w3.org/1999/xlink" clip-rule="evenodd" stroke-miterlimit="10" viewBox="0 0 138 80"><desc>SVG generated by Keynote</desc><defs></defs><g transform="matrix(1.00, 0.00, -0.00, -1.00, 0.0, 80.0)"><text xml:space="preserve" font-family="Helvetica,Helvetica" font-size="50.0" fill="#536467" transform="matrix(1.00, 0.00, -0.00, -1.00, 0.6, 31.1)">d</text><text xml:space="preserve" font-family="Helvetica,Helvetica" font-size="50.0" fill="#536467" transform="matrix(1.00, 0.00, -0.00, -1.00, 28.4, 31.1)">t</text><text xml:space="preserve" font-family="Helvetica,Helvetica" font-size="50.0" fill="#536467" transform="matrix(1.00, 0.00, -0.00, -1.00, 42.3, 31.1)">r</text><text xml:space="preserve" font-family="Helvetica,Helvetica" font-size="50.0" fill="#536467" transform="matrix(1.00, 0.00, -0.00, -1.00, 59.0, 31.1)">u</text><text xml:space="preserve" font-family="Helvetica,Helvetica" font-size="50.0" fill="#536467" transform="matrix(1.00, 0.00, -0.00, -1.00, 86.8, 31.1)">s</text><text xml:space="preserve" font-family="Helvetica,Helvetica" font-size="50.0" fill="#536467" transform="matrix(1.00, 0.00, -0.00, -1.00, 111.8, 31.1)">s</text><g><clipPath id="clip0x600000cbf500"><path d="M -0.4 25.1 L 136.8 25.1 L 136.8 29.5 L -0.4 29.5 Z M -0.4 25.1 "></path></clipPath><g clip-path="url(#clip0x600000cbf500)"><path d="M 2.1 54.4 L 138.3 54.4 " fill="none" stroke="#536467" stroke-width="2.47" transform="matrix(1.00, 0.00, 0.00, -1.00, -1.5, 81.7)"></path></g></g><g><clipPath id="clip0x600000cbf740"><path d="M 0.6 79.6 L 137.8 79.6 L 137.8 19.6 L 0.6 19.6 Z M 0.6 79.6 "></path></clipPath><g clip-path="url(#clip0x600000cbf740)"><path d="M 2.1 68.6 L 139.3 68.6 " fill="none" stroke="#000000" stroke-width="1.00" transform="matrix(1.00, 0.00, 0.00, -1.00, -1.5, 81.7)"></path></g></g></g></svg>