<?xml version="1.0" encoding="UTF-8" standalone="no"?><svg xmlns="http://www.w3.org/2000/svg" xmlns:xlink="http://www.w3.org/1999/xlink" clip-rule="evenodd" stroke-miterlimit="10" viewBox="0 0 375 76"><desc>SVG generated by Keynote</desc><defs></defs><g transform="matrix(1.00, 0.00, -0.00, -1.00, 0.0, 76.0)"><text xml:space="preserve" font-family="Helvetica-Oblique,Helvetica" font-style="italic" font-size="47.0" fill="#536467" transform="matrix(1.00, 0.00, -0.00, -1.00, 0.5, 30.0)">B</text><text xml:space="preserve" font-family="Helvetica-Oblique,Helvetica" font-style="italic" font-size="47.0" fill="#536467" transform="matrix(1.00, 0.00, -0.00, -1.00, 31.9, 30.0)">S</text><text xml:space="preserve" font-family="Helvetica-Oblique,Helvetica" font-style="italic" font-size="47.0" fill="#536467" transform="matrix(1.00, 0.00, -0.00, -1.00, 63.2, 30.0)">D</text><text xml:space="preserve" font-family="Helvetica-Oblique,Helvetica" font-style="italic" font-size="47.0" fill="#536467" transform="matrix(1.00, 0.00, -0.00, -1.00, 97.2, 30.0)">/</text><text xml:space="preserve" font-family="Helvetica-Oblique,Helvetica" font-style="italic" font-size="47.0" fill="#536467" transform="matrix(1.00, 0.00, -0.00, -1.00, 110.2, 30.0)">O</text><text xml:space="preserve" font-family="Helvetica-Oblique,Helvetica" font-style="italic" font-size="47.0" fill="#536467" transform="matrix(1.00, 0.00, -0.00, -1.00, 146.8, 30.0)">S</text><text xml:space="preserve" font-family="Helvetica-Oblique,Helvetica" font-style="italic" font-size="47.0" fill="#536467" transform="matrix(1.00, 0.00, -0.00, -1.00, 178.1, 30.0)">X</text><text xml:space="preserve" font-family="Helvetica-Oblique,Helvetica" font-style="italic" font-size="47.0" fill="#536467" transform="matrix(1.00, 0.00, -0.00, -1.00, 209.5, 30.0)">/</text><text xml:space="preserve" font-family="Helvetica-Oblique,Helvetica" font-style="italic" font-size="47.0" fill="#536467" transform="matrix(1.00, 0.00, -0.00, -1.00, 222.5, 30.0)">I</text><text xml:space="preserve" font-family="Helvetica-Oblique,Helvetica" font-style="italic" font-size="47.0" fill="#536467" transform="matrix(1.00, 0.00, -0.00, -1.00, 235.6, 30.0)">l</text><text xml:space="preserve" font-family="Helvetica-Oblique,Helvetica" font-style="italic" font-size="47.0" fill="#536467" transform="matrix(1.00, 0.00, -0.00, -1.00, 246.0, 30.0)">l</text><text xml:space="preserve" font-family="Helvetica-Oblique,Helvetica" font-style="italic" font-size="47.0" fill="#536467" transform="matrix(1.00, 0.00, -0.00, -1.00, 256.5, 30.0)">u</text><text xml:space="preserve" font-family="Helvetica-Oblique,Helvetica" font-style="italic" font-size="47.0" fill="#536467" transform="matrix(1.00, 0.00, -0.00, -1.00, 282.6, 30.0)">m</text><text xml:space="preserve" font-family="Helvetica-Oblique,Helvetica" font-style="italic" font-size="47.0" fill="#536467" transform="matrix(1.00, 0.00, -0.00, -1.00, 321.8, 30.0)">o</text><text xml:space="preserve" font-family="Helvetica-Oblique,Helvetica" font-style="italic" font-size="47.0" fill="#536467" transform="matrix(1.00, 0.00, -0.00, -1.00, 347.9, 30.0)">s</text><g><clipPath id="clip0x600000cbe000"><path d="M -0.5 24.3 L 371.4 24.3 L 371.4 28.6 L -0.5 28.6 Z M -0.5 24.3 "></path></clipPath><g clip-path="url(#clip0x600000cbe000)"><path d="M 2.1 50.9 L 373.0 50.9 " fill="none" stroke="#536467" stroke-width="2.32" transform="matrix(1.00, 0.00, 0.00, -1.00, -1.6, 77.3)"></path></g></g><g><clipPath id="clip0x600000cbe240"><path d="M 0.5 75.2 L 372.4 75.2 L 372.4 19.2 L 0.5 19.2 Z M 0.5 75.2 "></path></clipPath><g clip-path="url(#clip0x600000cbe240)"><path d="M 2.1 64.6 L 374.0 64.6 " fill="none" stroke="#000000" stroke-width="1.00" transform="matrix(1.00, 0.00, 0.00, -1.00, -1.6, 77.3)"></path></g></g></g></svg>