<?xml version="1.0" encoding="UTF-8" standalone="no"?><svg xmlns="http://www.w3.org/2000/svg" xmlns:xlink="http://www.w3.org/1999/xlink" clip-rule="evenodd" stroke-miterlimit="10" viewBox="0 0 216 42"><desc>SVG generated by Keynote</desc><defs></defs><g transform="matrix(1.00, 0.00, -0.00, -1.00, 0.0, 42.0)"><path d="M 1.0 41.0 L 215.0 41.0 L 215.0 1.0 L 1.0 1.0 Z M 1.1 40.6 " fill="#000851"></path><g><clipPath id="clip0x600000ea3360"><path d="M -5.6 -19.4 L 221.2 -19.4 L 221.2 47.3 L -5.6 47.3 Z M -5.6 -19.4 "></path></clipPath><g clip-path="url(#clip0x600000ea3360)"><text xml:space="preserve" font-family="LucidaGrande,Lucida Grande" font-size="30.0" fill="#F5D327" transform="matrix(1.00, 0.00, -0.00, -1.00, 3.3, 9.7)">m</text><text xml:space="preserve" font-family="LucidaGrande,Lucida Grande" font-size="30.0" fill="#F5D327" transform="matrix(1.00, 0.00, -0.00, -1.00, 31.3, 9.7)">a</text><text xml:space="preserve" font-family="LucidaGrande,Lucida Grande" font-size="30.0" fill="#F5D327" transform="matrix(1.00, 0.00, -0.00, -1.00, 47.8, 9.7)">n</text><text xml:space="preserve" font-family="LucidaGrande,Lucida Grande" font-size="30.0" fill="#F5D327" transform="matrix(1.00, 0.00, -0.00, -1.00, 66.4, 9.7)"> </text><text xml:space="preserve" font-family="LucidaGrande,Lucida Grande" font-size="30.0" fill="#F5D327" transform="matrix(1.00, 0.00, -0.00, -1.00, 75.9, 9.7)">-</text><text xml:space="preserve" font-family="LucidaGrande,Lucida Grande" font-size="30.0" fill="#F5D327" transform="matrix(1.00, 0.00, -0.00, -1.00, 93.3, 9.7)">k</text><text xml:space="preserve" font-family="LucidaGrande,Lucida Grande" font-size="30.0" fill="#F5D327" transform="matrix(1.00, 0.00, -0.00, -1.00, 110.8, 9.7)"> </text><text xml:space="preserve" font-family="LucidaGrande,Lucida Grande" font-size="30.0" fill="#F5D327" transform="matrix(1.00, 0.00, -0.00, -1.00, 120.3, 9.7)">d</text><text xml:space="preserve" font-family="LucidaGrande,Lucida Grande" font-size="30.0" fill="#F5D327" transform="matrix(1.00, 0.00, -0.00, -1.00, 139.2, 9.7)">t</text><text xml:space="preserve" font-family="LucidaGrande,Lucida Grande" font-size="30.0" fill="#F5D327" transform="matrix(1.00, 0.00, -0.00, -1.00, 150.5, 9.7)">r</text><text xml:space="preserve" font-family="LucidaGrande,Lucida Grande" font-size="30.0" fill="#F5D327" transform="matrix(1.00, 0.00, -0.00, -1.00, 162.7, 9.7)">a</text><text xml:space="preserve" font-family="LucidaGrande,Lucida Grande" font-size="30.0" fill="#F5D327" transform="matrix(1.00, 0.00, -0.00, -1.00, 179.3, 9.7)">c</text><text xml:space="preserve" font-family="LucidaGrande,Lucida Grande" font-size="30.0" fill="#F5D327" transform="matrix(1.00, 0.00, -0.00, -1.00, 194.7, 9.7)">e</text></g></g><g><clipPath id="clip0x600000ea3b40"><path d="M 3.3 38.4 L 212.4 38.4 L 212.4 3.4 L 3.3 3.4 Z M 3.3 38.4 "></path></clipPath><g clip-path="url(#clip0x600000ea3b40)"><g><clipPath id="clip0x600000ea3cc0"><path d="M -5.6 -19.4 L 221.2 -19.4 L 221.2 47.3 L -5.6 47.3 Z M -5.6 -19.4 "></path></clipPath><g clip-path="url(#clip0x600000ea3cc0)"><path d="M 2.1 43.6 L 211.2 43.6 " fill="none" stroke="#000000" stroke-width="1.00" transform="matrix(1.00, 0.00, 0.00, -1.00, 1.1, 40.6)"></path></g></g></g></g></g></svg>