<?xml version="1.0" encoding="UTF-8" standalone="no"?><svg xmlns="http://www.w3.org/2000/svg" xmlns:xlink="http://www.w3.org/1999/xlink" clip-rule="evenodd" stroke-miterlimit="10" viewBox="0 0 248 80"><desc>SVG generated by Keynote</desc><defs></defs><g transform="matrix(1.00, 0.00, -0.00, -1.00, 0.0, 80.0)"><text xml:space="preserve" font-family="Helvetica,Helvetica" font-size="50.0" fill="#536467" transform="matrix(1.00, 0.00, -0.00, -1.00, 0.4, 30.6)">o</text><text xml:space="preserve" font-family="Helvetica,Helvetica" font-size="50.0" fill="#536467" transform="matrix(1.00, 0.00, -0.00, -1.00, 28.2, 30.6)">p</text><text xml:space="preserve" font-family="Helvetica,Helvetica" font-size="50.0" fill="#536467" transform="matrix(1.00, 0.00, -0.00, -1.00, 56.0, 30.6)">e</text><text xml:space="preserve" font-family="Helvetica,Helvetica" font-size="50.0" fill="#536467" transform="matrix(1.00, 0.00, -0.00, -1.00, 83.8, 30.6)">n</text><text xml:space="preserve" font-family="Helvetica,Helvetica" font-size="50.0" fill="#536467" transform="matrix(1.00, 0.00, -0.00, -1.00, 111.6, 30.6)">s</text><text xml:space="preserve" font-family="Helvetica,Helvetica" font-size="50.0" fill="#536467" transform="matrix(1.00, 0.00, -0.00, -1.00, 136.6, 30.6)">n</text><text xml:space="preserve" font-family="Helvetica,Helvetica" font-size="50.0" fill="#536467" transform="matrix(1.00, 0.00, -0.00, -1.00, 164.5, 30.6)">o</text><text xml:space="preserve" font-family="Helvetica,Helvetica" font-size="50.0" fill="#536467" transform="matrix(1.00, 0.00, -0.00, -1.00, 192.3, 30.6)">o</text><text xml:space="preserve" font-family="Helvetica,Helvetica" font-size="50.0" fill="#536467" transform="matrix(1.00, 0.00, -0.00, -1.00, 220.1, 30.6)">p</text><g><clipPath id="clip0x608000ca4620"><path d="M -0.6 24.6 L 247.8 24.6 L 247.8 29.0 L -0.6 29.0 Z M -0.6 24.6 "></path></clipPath><g clip-path="url(#clip0x608000ca4620)"><path d="M 2.1 54.4 L 249.6 54.4 " fill="none" stroke="#536467" stroke-width="2.47" transform="matrix(1.00, 0.00, 0.00, -1.00, -1.8, 81.2)"></path></g></g><g><clipPath id="clip0x608000ca4860"><path d="M 0.4 79.1 L 248.8 79.1 L 248.8 19.1 L 0.4 19.1 Z M 0.4 79.1 "></path></clipPath><g clip-path="url(#clip0x608000ca4860)"><path d="M 2.1 68.6 L 250.6 68.6 " fill="none" stroke="#000000" stroke-width="1.00" transform="matrix(1.00, 0.00, 0.00, -1.00, -1.8, 81.2)"></path></g></g></g></svg>