<?xml version="1.0" encoding="UTF-8" standalone="no"?><svg xmlns="http://www.w3.org/2000/svg" xmlns:xlink="http://www.w3.org/1999/xlink" clip-rule="evenodd" stroke-miterlimit="10" viewBox="0 0 358 51"><desc>SVG generated by Keynote</desc><defs></defs><g transform="matrix(1.00, 0.00, -0.00, -1.00, 0.0, 51.0)"><text xml:space="preserve" font-family="Helvetica,Helvetica" font-size="50.0" fill="#536467" transform="matrix(1.00, 0.00, -0.00, -1.00, 0.7, 13.2)">c</text><text xml:space="preserve" font-family="Helvetica,Helvetica" font-size="50.0" fill="#536467" transform="matrix(1.00, 0.00, -0.00, -1.00, 25.7, 13.2)">h</text><text xml:space="preserve" font-family="Helvetica,Helvetica" font-size="50.0" fill="#536467" transform="matrix(1.00, 0.00, -0.00, -1.00, 53.5, 13.2)">r</text><text xml:space="preserve" font-family="Helvetica,Helvetica" font-size="50.0" fill="#536467" transform="matrix(1.00, 0.00, -0.00, -1.00, 70.1, 13.2)">o</text><text xml:space="preserve" font-family="Helvetica,Helvetica" font-size="50.0" fill="#536467" transform="matrix(1.00, 0.00, -0.00, -1.00, 97.9, 13.2)">m</text><text xml:space="preserve" font-family="Helvetica,Helvetica" font-size="50.0" fill="#536467" transform="matrix(1.00, 0.00, -0.00, -1.00, 139.6, 13.2)">e</text><text xml:space="preserve" font-family="Helvetica,Helvetica" font-size="50.0" fill="#536467" transform="matrix(1.00, 0.00, -0.00, -1.00, 167.4, 13.2)">:</text><text xml:space="preserve" font-family="Helvetica,Helvetica" font-size="50.0" fill="#536467" transform="matrix(1.00, 0.00, -0.00, -1.00, 181.3, 13.2)">/</text><text xml:space="preserve" font-family="Helvetica,Helvetica" font-size="50.0" fill="#536467" transform="matrix(1.00, 0.00, -0.00, -1.00, 195.2, 13.2)">/</text><text xml:space="preserve" font-family="Helvetica,Helvetica" font-size="50.0" fill="#536467" transform="matrix(1.00, 0.00, -0.00, -1.00, 209.1, 13.2)">t</text><text xml:space="preserve" font-family="Helvetica,Helvetica" font-size="50.0" fill="#536467" transform="matrix(1.00, 0.00, -0.00, -1.00, 222.9, 13.2)">r</text><text xml:space="preserve" font-family="Helvetica,Helvetica" font-size="50.0" fill="#536467" transform="matrix(1.00, 0.00, -0.00, -1.00, 239.6, 13.2)">a</text><text xml:space="preserve" font-family="Helvetica,Helvetica" font-size="50.0" fill="#536467" transform="matrix(1.00, 0.00, -0.00, -1.00, 267.4, 13.2)">c</text><text xml:space="preserve" font-family="Helvetica,Helvetica" font-size="50.0" fill="#536467" transform="matrix(1.00, 0.00, -0.00, -1.00, 292.4, 13.2)">i</text><text xml:space="preserve" font-family="Helvetica,Helvetica" font-size="50.0" fill="#536467" transform="matrix(1.00, 0.00, -0.00, -1.00, 303.5, 13.2)">n</text><text xml:space="preserve" font-family="Helvetica,Helvetica" font-size="50.0" fill="#536467" transform="matrix(1.00, 0.00, -0.00, -1.00, 331.3, 13.2)">g</text><g><clipPath id="clip0x600000cbd460"><path d="M 0.7 61.7 L 360.1 61.7 L 360.1 1.7 L 0.7 1.7 Z M 0.7 61.7 "></path></clipPath><g clip-path="url(#clip0x600000cbd460)"><path d="M 2.1 68.6 L 361.6 68.6 " fill="none" stroke="#000000" stroke-width="1.00" transform="matrix(1.00, 0.00, 0.00, -1.00, -1.5, 63.8)"></path></g></g></g></svg>