<?xml version="1.0" encoding="UTF-8" standalone="no"?><svg xmlns="http://www.w3.org/2000/svg" xmlns:xlink="http://www.w3.org/1999/xlink" clip-rule="evenodd" stroke-miterlimit="10" viewBox="0 0 213 51"><desc>SVG generated by Keynote</desc><defs></defs><g transform="matrix(1.00, 0.00, -0.00, -1.00, 0.0, 51.0)"><text xml:space="preserve" font-family="Helvetica,Helvetica" font-size="50.0" fill="#536467" transform="matrix(1.00, 0.00, -0.00, -1.00, 0.6, 13.2)">d</text><text xml:space="preserve" font-family="Helvetica,Helvetica" font-size="50.0" fill="#536467" transform="matrix(1.00, 0.00, -0.00, -1.00, 28.4, 13.2)">e</text><text xml:space="preserve" font-family="Helvetica,Helvetica" font-size="50.0" fill="#536467" transform="matrix(1.00, 0.00, -0.00, -1.00, 56.2, 13.2)">b</text><text xml:space="preserve" font-family="Helvetica,Helvetica" font-size="50.0" fill="#536467" transform="matrix(1.00, 0.00, -0.00, -1.00, 84.1, 13.2)">u</text><text xml:space="preserve" font-family="Helvetica,Helvetica" font-size="50.0" fill="#536467" transform="matrix(1.00, 0.00, -0.00, -1.00, 111.9, 13.2)">g</text><text xml:space="preserve" font-family="Helvetica,Helvetica" font-size="50.0" fill="#536467" transform="matrix(1.00, 0.00, -0.00, -1.00, 139.7, 13.2)">g</text><text xml:space="preserve" font-family="Helvetica,Helvetica" font-size="50.0" fill="#536467" transform="matrix(1.00, 0.00, -0.00, -1.00, 167.5, 13.2)">e</text><text xml:space="preserve" font-family="Helvetica,Helvetica" font-size="50.0" fill="#536467" transform="matrix(1.00, 0.00, -0.00, -1.00, 195.3, 13.2)">r</text><g><clipPath id="clip0x600000cbbae0"><path d="M 0.6 61.7 L 212.9 61.7 L 212.9 1.7 L 0.6 1.7 Z M 0.6 61.7 "></path></clipPath><g clip-path="url(#clip0x600000cbbae0)"><path d="M 2.1 68.6 L 214.4 68.6 " fill="none" stroke="#000000" stroke-width="1.00" transform="matrix(1.00, 0.00, 0.00, -1.00, -1.5, 63.9)"></path></g></g></g></svg>