<?xml version="1.0" encoding="UTF-8" standalone="no"?><svg xmlns="http://www.w3.org/2000/svg" xmlns:xlink="http://www.w3.org/1999/xlink" clip-rule="evenodd" stroke-miterlimit="10" viewBox="0 0 182 42"><desc>SVG generated by Keynote</desc><defs></defs><g transform="matrix(1.00, 0.00, -0.00, -1.00, 0.0, 42.0)"><text xml:space="preserve" font-family="Helvetica-Oblique,Helvetica" font-style="italic" font-size="40.0" fill="#536467" transform="matrix(1.00, 0.00, -0.00, -1.00, -2.6, 10.5)">v</text><text xml:space="preserve" font-family="Helvetica-Oblique,Helvetica" font-style="italic" font-size="40.0" fill="#536467" transform="matrix(1.00, 0.00, -0.00, -1.00, 17.4, 10.5)">8</text><text xml:space="preserve" font-family="Helvetica-Oblique,Helvetica" font-style="italic" font-size="40.0" fill="#536467" transform="matrix(1.00, 0.00, -0.00, -1.00, 39.6, 10.5)">-</text><text xml:space="preserve" font-family="Helvetica-Oblique,Helvetica" font-style="italic" font-size="40.0" fill="#536467" transform="matrix(1.00, 0.00, -0.00, -1.00, 52.9, 10.5)">p</text><text xml:space="preserve" font-family="Helvetica-Oblique,Helvetica" font-style="italic" font-size="40.0" fill="#536467" transform="matrix(1.00, 0.00, -0.00, -1.00, 75.2, 10.5)">r</text><text xml:space="preserve" font-family="Helvetica-Oblique,Helvetica" font-style="italic" font-size="40.0" fill="#536467" transform="matrix(1.00, 0.00, -0.00, -1.00, 88.5, 10.5)">o</text><text xml:space="preserve" font-family="Helvetica-Oblique,Helvetica" font-style="italic" font-size="40.0" fill="#536467" transform="matrix(1.00, 0.00, -0.00, -1.00, 110.8, 10.5)">ï¬</text><text xml:space="preserve" font-family="Helvetica-Oblique,Helvetica" font-style="italic" font-size="40.0" fill="#536467" transform="matrix(1.00, 0.00, -0.00, -1.00, 130.8, 10.5)">l</text><text xml:space="preserve" font-family="Helvetica-Oblique,Helvetica" font-style="italic" font-size="40.0" fill="#536467" transform="matrix(1.00, 0.00, -0.00, -1.00, 139.6, 10.5)">e</text><text xml:space="preserve" font-family="Helvetica-Oblique,Helvetica" font-style="italic" font-size="40.0" fill="#536467" transform="matrix(1.00, 0.00, -0.00, -1.00, 161.9, 10.5)">r</text><g><clipPath id="clip0x600000cbc860"><path d="M -20.6 49.3 L 176.2 49.3 L 176.2 1.3 L -20.6 1.3 Z M -20.6 49.3 "></path></clipPath><g clip-path="url(#clip0x600000cbc860)"><path d="M 2.1 56.6 L 199.0 56.6 " fill="none" stroke="#000000" stroke-width="1.00" transform="matrix(1.00, 0.00, 0.00, -1.00, -22.8, 51.4)"></path></g></g></g></svg>