<?xml version="1.0" encoding="UTF-8" standalone="no"?><svg xmlns="http://www.w3.org/2000/svg" xmlns:xlink="http://www.w3.org/1999/xlink" clip-rule="evenodd" stroke-miterlimit="10" viewBox="0 0 33 33"><desc>SVG generated by Keynote</desc><defs></defs><g transform="matrix(1.00, 0.00, -0.00, -1.00, 0.0, 33.0)"><g><clipPath id="clip0x600000aaa260"><path d="M 2.0 32.0 L 32.0 32.0 L 32.0 2.0 L 2.0 2.0 Z M 2.0 32.0 "></path></clipPath><g clip-path="url(#clip0x600000aaa260)"><g><clipPath id="clip0x600000aaa560"><path d="M 2.0 2.0 L 32.0 2.0 L 32.0 32.0 L 2.0 32.0 Z M 2.0 2.0 "></path></clipPath><g clip-path="url(#clip0x600000aaa560)"><path d="M 17.0 30.8 C 9.4 30.8 3.2 24.6 3.2 17.0 C 3.2 9.4 9.4 3.2 17.0 3.2 C 24.6 3.2 30.8 9.4 30.8 17.0 C 30.8 24.6 24.6 30.8 17.0 30.8 M 17.0 2.0 C 8.7 2.0 2.0 8.7 2.0 17.0 C 2.0 25.3 8.7 32.0 17.0 32.0 C 25.3 32.0 32.0 25.3 32.0 17.0 C 32.0 8.7 25.3 2.0 17.0 2.0 " fill="#FFFFFF"></path><path d="M 12.6 13.8 C 12.4 13.8 12.2 13.9 12.1 14.0 L 9.1 18.3 L 9.1 14.4 C 9.1 14.0 8.8 13.8 8.5 13.8 C 8.1 13.8 7.9 14.0 7.9 14.4 L 7.9 20.2 C 7.9 20.4 8.0 20.7 8.3 20.7 C 8.5 20.8 8.8 20.7 9.0 20.5 L 12.0 16.2 L 12.0 20.2 C 12.0 20.5 12.3 20.8 12.6 20.8 C 12.9 20.8 13.2 20.5 13.2 20.2 L 13.2 14.4 C 13.2 14.1 13.0 13.9 12.8 13.8 C 12.7 13.8 12.7 13.8 12.6 13.8 " fill="#FFFFFF"></path><path d="M 25.2 19.2 C 24.6 19.6 23.9 19.8 23.2 19.7 C 22.7 19.7 22.0 19.4 22.0 18.9 C 22.0 18.4 22.4 18.3 22.8 18.1 C 23.4 17.9 24.0 17.9 24.6 17.7 C 25.5 17.3 26.4 16.6 26.3 15.5 C 26.1 14.3 24.9 13.7 23.8 13.7 C 22.8 13.6 21.6 14.0 20.8 14.7 C 20.5 15.0 20.6 15.6 21.1 15.7 C 21.3 15.7 21.5 15.5 21.7 15.4 C 21.9 15.3 22.2 15.1 22.4 15.0 C 23.0 14.8 23.6 14.7 24.3 14.9 C 24.7 15.0 25.3 15.4 25.1 15.9 C 24.9 16.4 24.1 16.6 23.6 16.7 C 23.0 16.8 22.4 16.9 21.8 17.2 C 21.0 17.7 20.5 18.7 21.0 19.6 C 21.5 20.8 23.0 21.0 24.1 20.8 C 24.7 20.7 25.3 20.4 25.8 20.1 C 26.3 19.6 25.8 18.8 25.2 19.2 " fill="#FFFFFF"></path><path d="M 17.0 10.1 C 16.8 10.1 16.7 10.2 16.7 10.4 L 16.7 23.6 C 16.7 23.8 16.8 23.9 17.0 23.9 C 17.2 23.9 17.3 23.8 17.3 23.6 L 17.3 10.4 C 17.3 10.2 17.2 10.1 17.0 10.1 " fill="#FFFFFF"></path></g></g></g></g></g></svg>