<?xml version="1.0" encoding="UTF-8" standalone="no"?><svg xmlns="http://www.w3.org/2000/svg" xmlns:xlink="http://www.w3.org/1999/xlink" clip-rule="evenodd" stroke-miterlimit="10" viewBox="0 0 177 80"><desc>SVG generated by Keynote</desc><defs></defs><g transform="matrix(1.00, 0.00, -0.00, -1.00, 0.0, 80.0)"><text xml:space="preserve" font-family="Helvetica,Helvetica" font-size="50.0" fill="#536467" transform="matrix(1.00, 0.00, -0.00, -1.00, 1.7, 30.9)">v</text><text xml:space="preserve" font-family="Helvetica,Helvetica" font-size="50.0" fill="#536467" transform="matrix(1.00, 0.00, -0.00, -1.00, 26.7, 30.9)">a</text><text xml:space="preserve" font-family="Helvetica,Helvetica" font-size="50.0" fill="#536467" transform="matrix(1.00, 0.00, -0.00, -1.00, 54.6, 30.9)">l</text><text xml:space="preserve" font-family="Helvetica,Helvetica" font-size="50.0" fill="#536467" transform="matrix(1.00, 0.00, -0.00, -1.00, 65.7, 30.9)">g</text><text xml:space="preserve" font-family="Helvetica,Helvetica" font-size="50.0" fill="#536467" transform="matrix(1.00, 0.00, -0.00, -1.00, 93.5, 30.9)">r</text><text xml:space="preserve" font-family="Helvetica,Helvetica" font-size="50.0" fill="#536467" transform="matrix(1.00, 0.00, -0.00, -1.00, 110.1, 30.9)">i</text><text xml:space="preserve" font-family="Helvetica,Helvetica" font-size="50.0" fill="#536467" transform="matrix(1.00, 0.00, -0.00, -1.00, 121.3, 30.9)">n</text><text xml:space="preserve" font-family="Helvetica,Helvetica" font-size="50.0" fill="#536467" transform="matrix(1.00, 0.00, -0.00, -1.00, 149.1, 30.9)">d</text><g><clipPath id="clip0x608000aa8ee0"><path d="M 0.7 24.9 L 176.8 24.9 L 176.8 29.4 L 0.7 29.4 Z M 0.7 24.9 "></path></clipPath><g clip-path="url(#clip0x608000aa8ee0)"><path d="M 2.1 54.4 L 177.2 54.4 " fill="none" stroke="#536467" stroke-width="2.47" transform="matrix(1.00, 0.00, 0.00, -1.00, -0.4, 81.6)"></path></g></g><g><clipPath id="clip0x608000aa9120"><path d="M 1.7 79.4 L 177.8 79.4 L 177.8 19.4 L 1.7 19.4 Z M 1.7 79.4 "></path></clipPath><g clip-path="url(#clip0x608000aa9120)"><path d="M 2.1 68.6 L 178.2 68.6 " fill="none" stroke="#000000" stroke-width="1.00" transform="matrix(1.00, 0.00, 0.00, -1.00, -0.4, 81.6)"></path></g></g></g></svg>