<?xml version="1.0" encoding="UTF-8" standalone="no"?><svg xmlns="http://www.w3.org/2000/svg" xmlns:xlink="http://www.w3.org/1999/xlink" clip-rule="evenodd" stroke-miterlimit="10" viewBox="0 0 244 80"><desc>SVG generated by Keynote</desc><defs></defs><g transform="matrix(1.00, 0.00, -0.00, -1.00, 0.0, 80.0)"><text xml:space="preserve" font-family="Helvetica,Helvetica" font-size="50.0" fill="#536467" transform="matrix(1.00, 0.00, -0.00, -1.00, 0.7, 30.9)">e</text><text xml:space="preserve" font-family="Helvetica,Helvetica" font-size="50.0" fill="#536467" transform="matrix(1.00, 0.00, -0.00, -1.00, 28.5, 30.9)">x</text><text xml:space="preserve" font-family="Helvetica,Helvetica" font-size="50.0" fill="#536467" transform="matrix(1.00, 0.00, -0.00, -1.00, 53.5, 30.9)">e</text><text xml:space="preserve" font-family="Helvetica,Helvetica" font-size="50.0" fill="#536467" transform="matrix(1.00, 0.00, -0.00, -1.00, 81.4, 30.9)">c</text><text xml:space="preserve" font-family="Helvetica,Helvetica" font-size="50.0" fill="#536467" transform="matrix(1.00, 0.00, -0.00, -1.00, 106.4, 30.9)">s</text><text xml:space="preserve" font-family="Helvetica,Helvetica" font-size="50.0" fill="#536467" transform="matrix(1.00, 0.00, -0.00, -1.00, 131.4, 30.9)">n</text><text xml:space="preserve" font-family="Helvetica,Helvetica" font-size="50.0" fill="#536467" transform="matrix(1.00, 0.00, -0.00, -1.00, 159.2, 30.9)">o</text><text xml:space="preserve" font-family="Helvetica,Helvetica" font-size="50.0" fill="#536467" transform="matrix(1.00, 0.00, -0.00, -1.00, 187.0, 30.9)">o</text><text xml:space="preserve" font-family="Helvetica,Helvetica" font-size="50.0" fill="#536467" transform="matrix(1.00, 0.00, -0.00, -1.00, 214.8, 30.9)">p</text><g><clipPath id="clip0x600000abb300"><path d="M -0.3 24.9 L 242.6 24.9 L 242.6 29.4 L -0.3 29.4 Z M -0.3 24.9 "></path></clipPath><g clip-path="url(#clip0x600000abb300)"><path d="M 2.1 54.4 L 244.0 54.4 " fill="none" stroke="#536467" stroke-width="2.47" transform="matrix(1.00, 0.00, 0.00, -1.00, -1.4, 81.6)"></path></g></g><g><clipPath id="clip0x600000abb540"><path d="M 0.7 79.4 L 243.6 79.4 L 243.6 19.4 L 0.7 19.4 Z M 0.7 79.4 "></path></clipPath><g clip-path="url(#clip0x600000abb540)"><path d="M 2.1 68.6 L 245.0 68.6 " fill="none" stroke="#000000" stroke-width="1.00" transform="matrix(1.00, 0.00, 0.00, -1.00, -1.4, 81.6)"></path></g></g></g></svg>