<?xml version="1.0" encoding="UTF-8" standalone="no"?><svg xmlns="http://www.w3.org/2000/svg" xmlns:xlink="http://www.w3.org/1999/xlink" clip-rule="evenodd" stroke-miterlimit="10" viewBox="0 0 230 80"><desc>SVG generated by Keynote</desc><defs></defs><g transform="matrix(1.00, 0.00, -0.00, -1.00, 0.0, 80.0)"><text xml:space="preserve" font-family="Helvetica,Helvetica" font-size="50.0" fill="#536467" transform="matrix(1.00, 0.00, -0.00, -1.00, 0.7, 31.2)">s</text><text xml:space="preserve" font-family="Helvetica,Helvetica" font-size="50.0" fill="#536467" transform="matrix(1.00, 0.00, -0.00, -1.00, 25.7, 31.2)">y</text><text xml:space="preserve" font-family="Helvetica,Helvetica" font-size="50.0" fill="#536467" transform="matrix(1.00, 0.00, -0.00, -1.00, 50.7, 31.2)">s</text><text xml:space="preserve" font-family="Helvetica,Helvetica" font-size="50.0" fill="#536467" transform="matrix(1.00, 0.00, -0.00, -1.00, 75.7, 31.2)">t</text><text xml:space="preserve" font-family="Helvetica,Helvetica" font-size="50.0" fill="#536467" transform="matrix(1.00, 0.00, -0.00, -1.00, 89.6, 31.2)">e</text><text xml:space="preserve" font-family="Helvetica,Helvetica" font-size="50.0" fill="#536467" transform="matrix(1.00, 0.00, -0.00, -1.00, 117.4, 31.2)">m</text><text xml:space="preserve" font-family="Helvetica,Helvetica" font-size="50.0" fill="#536467" transform="matrix(1.00, 0.00, -0.00, -1.00, 159.1, 31.2)">t</text><text xml:space="preserve" font-family="Helvetica,Helvetica" font-size="50.0" fill="#536467" transform="matrix(1.00, 0.00, -0.00, -1.00, 173.0, 31.2)">a</text><text xml:space="preserve" font-family="Helvetica,Helvetica" font-size="50.0" fill="#536467" transform="matrix(1.00, 0.00, -0.00, -1.00, 200.8, 31.2)">p</text><g><clipPath id="clip0x600000aba760"><path d="M -0.3 25.2 L 228.6 25.2 L 228.6 29.7 L -0.3 29.7 Z M -0.3 25.2 "></path></clipPath><g clip-path="url(#clip0x600000aba760)"><path d="M 2.1 54.4 L 230.0 54.4 " fill="none" stroke="#536467" stroke-width="2.47" transform="matrix(1.00, 0.00, 0.00, -1.00, -1.4, 81.9)"></path></g></g><g><clipPath id="clip0x600000aba9a0"><path d="M 0.7 79.7 L 229.6 79.7 L 229.6 19.7 L 0.7 19.7 Z M 0.7 79.7 "></path></clipPath><g clip-path="url(#clip0x600000aba9a0)"><path d="M 2.1 68.6 L 231.0 68.6 " fill="none" stroke="#000000" stroke-width="1.00" transform="matrix(1.00, 0.00, 0.00, -1.00, -1.4, 81.9)"></path></g></g></g></svg>