<?xml version="1.0" encoding="UTF-8" standalone="no"?><svg xmlns="http://www.w3.org/2000/svg" xmlns:xlink="http://www.w3.org/1999/xlink" clip-rule="evenodd" stroke-miterlimit="10" viewBox="0 0 128 80"><desc>SVG generated by Keynote</desc><defs></defs><g transform="matrix(1.00, 0.00, -0.00, -1.00, 0.0, 80.0)"><text xml:space="preserve" font-family="Helvetica,Helvetica" font-size="50.0" fill="#536467" transform="matrix(1.00, 0.00, -0.00, -1.00, 1.2, 30.9)">f</text><text xml:space="preserve" font-family="Helvetica,Helvetica" font-size="50.0" fill="#536467" transform="matrix(1.00, 0.00, -0.00, -1.00, 15.1, 30.9)">t</text><text xml:space="preserve" font-family="Helvetica,Helvetica" font-size="50.0" fill="#536467" transform="matrix(1.00, 0.00, -0.00, -1.00, 29.0, 30.9)">r</text><text xml:space="preserve" font-family="Helvetica,Helvetica" font-size="50.0" fill="#536467" transform="matrix(1.00, 0.00, -0.00, -1.00, 45.6, 30.9)">a</text><text xml:space="preserve" font-family="Helvetica,Helvetica" font-size="50.0" fill="#536467" transform="matrix(1.00, 0.00, -0.00, -1.00, 73.5, 30.9)">c</text><text xml:space="preserve" font-family="Helvetica,Helvetica" font-size="50.0" fill="#536467" transform="matrix(1.00, 0.00, -0.00, -1.00, 98.5, 30.9)">e</text><g><clipPath id="clip0x600000ab8780"><path d="M 0.2 24.9 L 126.3 24.9 L 126.3 29.4 L 0.2 29.4 Z M 0.2 24.9 "></path></clipPath><g clip-path="url(#clip0x600000ab8780)"><path d="M 2.1 54.4 L 127.2 54.4 " fill="none" stroke="#536467" stroke-width="2.47" transform="matrix(1.00, 0.00, 0.00, -1.00, -0.9, 81.6)"></path></g></g><g><clipPath id="clip0x600000ab89c0"><path d="M 1.2 79.4 L 127.3 79.4 L 127.3 19.4 L 1.2 19.4 Z M 1.2 79.4 "></path></clipPath><g clip-path="url(#clip0x600000ab89c0)"><path d="M 2.1 68.6 L 128.2 68.6 " fill="none" stroke="#000000" stroke-width="1.00" transform="matrix(1.00, 0.00, 0.00, -1.00, -0.9, 81.6)"></path></g></g></g></svg>